<svg id="组_230" data-name="组 230" xmlns="http://www.w3.org/2000/svg" width="242" height="43.3" viewBox="0 0 242 43.3">
  <g id="组_227" data-name="组 227">
    <path id="路径_208" data-name="路径 208" d="M66.3,8.95v10.7H54V8.95H50.7v24.7H54V22.85H66.3v10.8h3.3V8.95Z" fill="#fff"/>
    <path id="路径_209" data-name="路径 209" d="M83.6,34.25a7.577,7.577,0,0,1-3.6-.8,9.721,9.721,0,0,1-2.9-1.9,8.123,8.123,0,0,1-1.9-2.9,8.627,8.627,0,0,1-.8-3.6,7.577,7.577,0,0,1,.8-3.6,9.721,9.721,0,0,1,1.9-2.9,8.123,8.123,0,0,1,2.9-1.9,8.627,8.627,0,0,1,3.6-.8,7.577,7.577,0,0,1,3.6.8,9.721,9.721,0,0,1,2.9,1.9,8.123,8.123,0,0,1,1.9,2.9,8.627,8.627,0,0,1,.8,3.6,7.577,7.577,0,0,1-.8,3.6,9.721,9.721,0,0,1-1.9,2.9,8.123,8.123,0,0,1-2.9,1.9,9.375,9.375,0,0,1-3.6.8m0-15.3a5.932,5.932,0,0,0-2.3.5,5.335,5.335,0,0,0-1.9,1.3,8.578,8.578,0,0,0-1.3,2,6.352,6.352,0,0,0-.5,2.3,5.932,5.932,0,0,0,.5,2.3,5.335,5.335,0,0,0,1.3,1.9,6.069,6.069,0,0,0,4.2,1.8,5.932,5.932,0,0,0,2.3-.5,5.335,5.335,0,0,0,1.9-1.3,6.069,6.069,0,0,0,1.8-4.2,5.932,5.932,0,0,0-.5-2.3,6.9,6.9,0,0,0-1.3-2,4.968,4.968,0,0,0-1.9-1.3,5.932,5.932,0,0,0-2.3-.5" fill="#fff"/>
    <path id="路径_210" data-name="路径 210" d="M96.7,28.55a6.882,6.882,0,0,1-.2-1.3V16.75h3v10a7.845,7.845,0,0,0,.2,1.4,8.8,8.8,0,0,0,.5,1.5,4.024,4.024,0,0,0,1.3,1.3,3.6,3.6,0,0,0,2.2.5,6.845,6.845,0,0,0,2.7-.5,3.924,3.924,0,0,0,1.5-1.3,5.483,5.483,0,0,0,.8-1.5,2.972,2.972,0,0,0,.2-1.2V16.65h3v16.9h-3.1v-1.5a10.9,10.9,0,0,1-1.3,1.1c-.5.2-1,.5-1.6.8a7.876,7.876,0,0,1-2.3.4,7.616,7.616,0,0,1-3.2-.6,8.008,8.008,0,0,1-2.1-1.5,9.392,9.392,0,0,1-1.2-1.8c-.2-.8-.3-1.4-.4-1.9" fill="#fff"/>
    <path id="路径_211" data-name="路径 211" d="M124,23.25c.7.2,1.3.3,2.2.5a6.715,6.715,0,0,1,2.3,1,7.089,7.089,0,0,1,1.8,1.6,4.237,4.237,0,0,1,.8,2.6,4.614,4.614,0,0,1-2,3.9,8.983,8.983,0,0,1-5.5,1.4,8.524,8.524,0,0,1-2.3-.3,13.064,13.064,0,0,1-2.1-.8,11.068,11.068,0,0,1-1.6-1.1,3.6,3.6,0,0,1-1-1.5l2.7-1a3.91,3.91,0,0,0,1.7,1.2,7.635,7.635,0,0,0,2.7.5,6.151,6.151,0,0,0,1.3-.1c.5-.1,1-.2,1.4-.3a3.166,3.166,0,0,0,1.2-.8,1.9,1.9,0,0,0,.5-1.3,2.031,2.031,0,0,0-.6-1.6,13.7,13.7,0,0,0-1.4-.8c-.6-.2-1.5-.5-2.6-.8a18.916,18.916,0,0,0-2.3-.5,6.667,6.667,0,0,1-2.1-.9,5.017,5.017,0,0,1-1.5-1.4,3.8,3.8,0,0,1-.6-2.2,4.591,4.591,0,0,1,1.8-3.7,7.337,7.337,0,0,1,4.9-1.4,17.852,17.852,0,0,1,2.3.2,5.989,5.989,0,0,1,2,.8,9.062,9.062,0,0,1,1.6,1.1,3.6,3.6,0,0,1,1,1.5l-2.7,1a2.955,2.955,0,0,0-1.5-1.1,6.436,6.436,0,0,0-2.4-.5,5.545,5.545,0,0,0-2.8.6,1.681,1.681,0,0,0-1,1.5,1.268,1.268,0,0,0,.1.6.821.821,0,0,0,.5.5,2.7,2.7,0,0,0,1.2.5c.3.7,1,1,2,1.1" fill="#fff"/>
    <path id="路径_212" data-name="路径 212" d="M137.6,25.95a6.463,6.463,0,0,0,.6,2.1,7.352,7.352,0,0,0,1.2,1.7,5.715,5.715,0,0,0,1.6,1.1,4.552,4.552,0,0,0,2,.5,5.208,5.208,0,0,0,3-.8,6.031,6.031,0,0,0,2.1-2.1l2.4,1.5a7.721,7.721,0,0,1-3.2,3,8.969,8.969,0,0,1-4.4,1.1,6.7,6.7,0,0,1-3.1-.7,9.314,9.314,0,0,1-2.6-1.8,8.061,8.061,0,0,1-1.8-2.6,8.972,8.972,0,0,1-.9-3.3v-.9a12.483,12.483,0,0,1,.2-2.1,8.083,8.083,0,0,1,1.1-2.7,7.871,7.871,0,0,1,1.8-2.2,12.036,12.036,0,0,1,2.4-1.5,6.632,6.632,0,0,1,2.8-.5,8.676,8.676,0,0,1,2.8.5,6.08,6.08,0,0,1,2.4,1.5,6.458,6.458,0,0,1,1.8,2.2,10.242,10.242,0,0,1,1.1,2.7,7.145,7.145,0,0,1,.2,2.1v.9C151.5,25.95,137.6,25.95,137.6,25.95Zm10.7-2.9a6.633,6.633,0,0,0-2-3,4.8,4.8,0,0,0-3.2-1.1,5.167,5.167,0,0,0-3.2,1.1,5.724,5.724,0,0,0-2,3Z" fill="#fff"/>
    <path id="路径_213" data-name="路径 213" d="M168.8,8.95v3.1h-7.3v21.6h-3.3V12.05h-7.3V8.95Z" fill="#fff"/>
    <path id="路径_214" data-name="路径 214" d="M176.9,34.25a7.577,7.577,0,0,1-3.6-.8,9.721,9.721,0,0,1-2.9-1.9,8.123,8.123,0,0,1-1.9-2.9,8.627,8.627,0,0,1-.8-3.6,7.577,7.577,0,0,1,.8-3.6,9.721,9.721,0,0,1,1.9-2.9,8.123,8.123,0,0,1,2.9-1.9,8.627,8.627,0,0,1,3.6-.8,7.577,7.577,0,0,1,3.6.8,9.721,9.721,0,0,1,2.9,1.9,8.123,8.123,0,0,1,1.9,2.9,8.627,8.627,0,0,1,.8,3.6,7.577,7.577,0,0,1-.8,3.6,9.721,9.721,0,0,1-1.9,2.9,8.123,8.123,0,0,1-2.9,1.9,9.79,9.79,0,0,1-3.6.8m0-15.3a5.932,5.932,0,0,0-2.3.5,5.335,5.335,0,0,0-1.9,1.3,8.578,8.578,0,0,0-1.3,2,6.352,6.352,0,0,0-.5,2.3,5.932,5.932,0,0,0,.5,2.3,6.129,6.129,0,0,0,5.5,3.7,5.932,5.932,0,0,0,2.3-.5,5.335,5.335,0,0,0,1.9-1.3,6.069,6.069,0,0,0,1.8-4.2,5.932,5.932,0,0,0-.5-2.3,8.577,8.577,0,0,0-1.3-2,4.968,4.968,0,0,0-1.9-1.3,5.932,5.932,0,0,0-2.3-.5" fill="#fff"/>
    <path id="路径_215" data-name="路径 215" d="M206,33.65h-3.9l-6.5-7.8-2.1,2.2v5.6h-3V8.95h3v14.7l7.9-8.2,2.2,2-5.8,6.2Z" fill="#fff"/>
    <path id="路径_216" data-name="路径 216" d="M208.6,25.95a6.463,6.463,0,0,0,.6,2.1,7.352,7.352,0,0,0,1.2,1.7,5.715,5.715,0,0,0,1.6,1.1,4.552,4.552,0,0,0,2,.5,5.208,5.208,0,0,0,3-.8,7.009,7.009,0,0,0,2.1-2.1l2.4,1.5a7.721,7.721,0,0,1-3.2,3,8.009,8.009,0,0,1-4.4,1.1,6.7,6.7,0,0,1-3.1-.7,8.839,8.839,0,0,1-4.4-4.4,8.972,8.972,0,0,1-.9-3.3v-.9a12.483,12.483,0,0,1,.2-2.1,8.083,8.083,0,0,1,1.1-2.7,7.871,7.871,0,0,1,1.8-2.2,12.036,12.036,0,0,1,2.4-1.5c1-.1,2-.3,3-.3a8.676,8.676,0,0,1,2.8.5,6.08,6.08,0,0,1,2.4,1.5,6.458,6.458,0,0,1,1.8,2.2,10.242,10.242,0,0,1,1.1,2.7,7.145,7.145,0,0,1,.2,2.1v.9C222.4,25.95,208.6,25.95,208.6,25.95Zm10.6-2.9a6.633,6.633,0,0,0-2-3,4.8,4.8,0,0,0-3.2-1.1,5.167,5.167,0,0,0-3.2,1.1,6.375,6.375,0,0,0-2,3Z" fill="#fff"/>
    <path id="路径_217" data-name="路径 217" d="M241.9,21.75a1.952,1.952,0,0,1,.1.7v11.1h-3v-9.9a9.324,9.324,0,0,0-.2-1.4,8.8,8.8,0,0,0-.5-1.5,5.347,5.347,0,0,0-1.3-1.3,3.786,3.786,0,0,0-2.2-.5,6.845,6.845,0,0,0-2.7.5,3.924,3.924,0,0,0-1.5,1.3,5.482,5.482,0,0,0-.8,1.5,2.8,2.8,0,0,0-.2,1.1v10.3h-3V16.75h3v1.5l.4-.4a4.871,4.871,0,0,1,1-.8c.5-.2,1-.5,1.6-.8a7.8,7.8,0,0,1,2.2-.4,8.449,8.449,0,0,1,3.3.6,6.639,6.639,0,0,1,2.1,1.5,9.391,9.391,0,0,1,1.2,1.8,5.832,5.832,0,0,1,.5,2" fill="#fff"/>
  </g>
  <g id="组_229" data-name="组 229">
    <path id="路径_218" data-name="路径 218" d="M23.3,15.2h2.4V11.6h6.1V31.2H25.7V25.7h4V17.3H13.2v8.4h3.9v5.5h-6V11.6h6.1v3.6h2.4V9H8.6V33.8h11V23.2H15.8V19.8H27.1v3.4H23.3V33.7h11V9h-11Z" fill="#fff"/>
    <path id="路径_219" data-name="路径 219" d="M21.6,43.3A21.65,21.65,0,1,1,43.2,21.6,21.659,21.659,0,0,1,21.6,43.3m0-41.5A19.8,19.8,0,1,0,41.4,21.6,19.781,19.781,0,0,0,21.6,1.8" fill="#fff"/>
    <g id="组_228" data-name="组 228">
      <path id="路径_220" data-name="路径 220" d="M17.582,39.007V36.125h-.009l-.565.311-.116-.378.757-.406h.437v3.355Z" fill="#fff"/>
      <path id="路径_221" data-name="路径 221" d="M19.643,37.159a.916.916,0,0,1,.731-.348.948.948,0,0,1,.931,1.065,1.091,1.091,0,0,1-1.06,1.18c-.713,0-1.132-.584-1.132-1.417a2.169,2.169,0,0,1,.539-1.514A1.868,1.868,0,0,1,21,35.6l.005.41a1.281,1.281,0,0,0-1.368,1.146Zm1.145.748c0-.437-.223-.727-.575-.727a.619.619,0,0,0-.588.584c.009.526.227.9.62.9C20.583,38.669,20.788,38.348,20.788,37.907Z" fill="#fff"/>
      <path id="路径_222" data-name="路径 222" d="M22.938,37.2a.844.844,0,0,1,.7.85,1.045,1.045,0,0,1-1.181,1.007,1.592,1.592,0,0,1-.82-.209l.134-.4a1.324,1.324,0,0,0,.664.191.6.6,0,0,0,.672-.61c0-.433-.365-.633-.761-.633h-.228v-.37h.219c.289,0,.668-.174.668-.543a.463.463,0,0,0-.526-.473,1.142,1.142,0,0,0-.6.2l-.129-.369A1.52,1.52,0,0,1,22.6,35.6a.825.825,0,0,1,.936.807.837.837,0,0,1-.6.783Z" fill="#fff"/>
      <path id="路径_223" data-name="路径 223" d="M24.646,37.159a.918.918,0,0,1,.731-.348.948.948,0,0,1,.931,1.065,1.091,1.091,0,0,1-1.06,1.18c-.713,0-1.132-.584-1.132-1.417a2.17,2.17,0,0,1,.54-1.514A1.868,1.868,0,0,1,26,35.6l.005.41a1.281,1.281,0,0,0-1.368,1.146Zm1.146.748c0-.437-.223-.727-.575-.727a.618.618,0,0,0-.588.584c.009.526.227.9.619.9C25.587,38.669,25.792,38.348,25.792,37.907Z" fill="#fff"/>
    </g>
  </g>
</svg>
